<svg width="74" height="97" viewBox="0 0 74 97" fill="none" xmlns="http://www.w3.org/2000/svg">
<g id="mapa">
<g id="Estantre de livro">
<rect id="Rectangle 112" x="4.5" y="0.5" width="65" height="21" fill="#68372B" stroke="black"/>
<g id="Rectangle 113" filter="url(#filter0_d_3_2)">
<rect x="4" y="21" width="66" height="68" fill="#68372B"/>
<rect x="4.5" y="21.5" width="65" height="67" stroke="black"/>
</g>
<rect id="Rectangle 114" x="8.5" y="25.5" width="57" height="59" fill="#48271F" stroke="black"/>
<rect id="Rectangle 115" x="8.5" y="40.5" width="57" height="3" fill="#68372B" stroke="black"/>
<rect id="Rectangle 116" x="8.5" y="62.5" width="57" height="3" fill="#68372B" stroke="black"/>
<rect id="Rectangle 117" x="60.25" y="27.25" width="4.5" height="12.5" fill="#F3D8EF" stroke="black" stroke-width="0.5"/>
<rect id="Rectangle 123" x="60.25" y="50.25" width="4.5" height="12.5" fill="#B1E2DE" stroke="black" stroke-width="0.5"/>
<rect id="Rectangle 124" x="8.25" y="72.25" width="4.5" height="12.5" fill="#10B981" stroke="black" stroke-width="0.5"/>
<rect id="Rectangle 118" x="56.25" y="27.25" width="3.5" height="12.5" fill="#EBF0FF" stroke="black" stroke-width="0.5"/>
<rect id="Rectangle 119" x="52.25" y="27.25" width="3.5" height="12.5" fill="#EAC98F" stroke="black" stroke-width="0.5"/>
<rect id="Rectangle 127" x="56.25" y="50.25" width="3.5" height="12.5" fill="#EAC98F" stroke="black" stroke-width="0.5"/>
<rect id="Rectangle 128" x="60.25" y="72.25" width="3.5" height="12.5" fill="#EAC98F" stroke="black" stroke-width="0.5"/>
<rect id="Rectangle 120" x="48.8833" y="27.324" width="3.5" height="12.5" transform="rotate(21.3916 48.8833 27.324)" fill="#307EFF" stroke="black" stroke-width="0.5"/>
<rect id="Rectangle 125" x="13.3314" y="73.7894" width="3.5" height="12.5" transform="rotate(-24.619 13.3314 73.7894)" fill="#307EFF" stroke="black" stroke-width="0.5"/>
<rect id="Rectangle 121" x="23.755" y="58.2672" width="3.5" height="12.5" transform="rotate(90.077 23.755 58.2672)" fill="#307EFF" stroke="black" stroke-width="0.5"/>
<rect id="Rectangle 126" x="51.755" y="81.2672" width="3.5" height="12.5" transform="rotate(90.077 51.755 81.2672)" fill="#F9F9F9" stroke="black" stroke-width="0.5"/>
<rect id="Rectangle 122" x="13.25" y="57.75" width="3.5" height="12.5" transform="rotate(-90 13.25 57.75)" fill="#FF9500" stroke="black" stroke-width="0.5"/>
</g>
</g>
<defs>
<filter id="filter0_d_3_2" x="0" y="21" width="74" height="76" filterUnits="userSpaceOnUse" color-interpolation-filters="sRGB">
<feFlood flood-opacity="0" result="BackgroundImageFix"/>
<feColorMatrix in="SourceAlpha" type="matrix" values="0 0 0 0 0 0 0 0 0 0 0 0 0 0 0 0 0 0 127 0" result="hardAlpha"/>
<feOffset dy="4"/>
<feGaussianBlur stdDeviation="2"/>
<feComposite in2="hardAlpha" operator="out"/>
<feColorMatrix type="matrix" values="0 0 0 0 0 0 0 0 0 0 0 0 0 0 0 0 0 0 0.25 0"/>
<feBlend mode="normal" in2="BackgroundImageFix" result="effect1_dropShadow_3_2"/>
<feBlend mode="normal" in="SourceGraphic" in2="effect1_dropShadow_3_2" result="shape"/>
</filter>
</defs>
</svg>
